# File created by Blade
# Date/Time:  Thu Sep 25 18:48:06 2014
# Frame Rate: 120.000 fps
#------------------------------------------------------
:FULLY-SPECIFIED
:DEGREES
2186
root 0.748360 32.907708 2.653524 6.463619 -7.062074 -0.466399
Spine -14.981173 -2.794136 -1.286254
Head 16.250169 -0.772295 16.760425
LeftShoulder 2.738758 31.375829 3.984171
LeftArm 140.615911 64.963454 47.868775
LeftForeArm 29.253152 -0.000000 122.487762
LeftHand -0.632952 0.000000 -21.896791
LeftHandThumb1 -26.253704 0.000000 33.147579
RightShoulder -25.185834 23.815137 -44.915838
RightArm 114.026084 34.324499 90.400501
RightForeArm 22.429479 0.000000 154.108549
RightHand 8.655680 -0.000000 5.025874
RightHandThumb1 -24.326973 -0.000000 -32.862282
LeftUpLeg 3.903785 15.703572 4.595551
LeftLeg -3.321030 -0.000000 0.000000
LeftFoot -8.562827 3.243748 -16.216802
LeftToeBase 11.242237 -0.000000 -0.000000
RightUpLeg 0.385919 -5.285480 -5.578555
RightLeg -0.815794 -0.000000 0.000000
RightFoot -5.618032 -1.517631 4.612809
RightToeBase 0.329642 -0.000000 -0.000000
2187
root 0.751863 32.907294 2.656446 6.442003 -7.046843 -0.455731
Spine -14.997562 -2.790949 -1.266702
Head 16.286460 -0.760747 16.748933
LeftShoulder 2.728167 31.385265 3.982456
LeftArm 140.577617 64.949520 47.838206
LeftForeArm 29.252567 -0.000000 122.482936
LeftHand -0.607160 0.000000 -21.934669
LeftHandThumb1 -26.253704 0.000000 33.147579
RightShoulder -25.196736 23.805732 -44.901486
RightArm 114.000583 34.305728 90.408432
RightForeArm 22.422374 -0.000000 154.125146
RightHand 8.639853 -0.000000 5.021526
RightHandThumb1 -24.326973 -0.000000 -32.862282
LeftUpLeg 3.925788 15.693659 4.586342
LeftLeg -3.320594 -0.000000 0.000000
LeftFoot -8.565680 3.243333 -16.154345
LeftToeBase 11.283156 -0.000000 -0.000000
RightUpLeg 0.410969 -5.281892 -5.600380
RightLeg -0.799385 -0.000000 0.000000
RightFoot -5.662375 -1.550571 4.657274
RightToeBase 0.424893 -0.000000 -0.000000
2188
root 0.754359 32.906725 2.659649 6.423530 -7.030780 -0.449014
Spine -15.022362 -2.781862 -1.249880
Head 16.317339 -0.793719 16.686124
LeftShoulder 2.724699 31.375464 3.990362
LeftArm 140.580144 64.954483 47.847705
LeftForeArm 29.255999 -0.000000 122.491722
LeftHand -0.633220 -0.000000 -21.990151
LeftHandThumb1 -26.253704 0.000000 33.147579
RightShoulder -25.206296 23.808145 -44.909272
RightArm 113.956481 34.300000 90.403125
RightForeArm 22.363849 -0.000000 154.151805
RightHand 8.607661 -0.000000 4.930043
RightHandThumb1 -24.326973 -0.000000 -32.862282
LeftUpLeg 3.946592 15.684530 4.584085
LeftLeg -3.315190 -0.000000 0.000000
LeftFoot -8.577524 3.217231 -16.232118
LeftToeBase 11.296711 -0.000000 -0.000000
RightUpLeg 0.436375 -5.294335 -5.612747
RightLeg -0.797572 -0.000000 0.000000
RightFoot -5.668702 -1.554736 4.652085
RightToeBase 0.416600 -0.000000 -0.000000
2189
root 0.757689 32.906387 2.661764 6.413771 -7.015476 -0.441533
Spine -15.058997 -2.784032 -1.226841
Head 16.347863 -0.818129 16.639264
LeftShoulder 2.720173 31.394165 3.986848
LeftArm 140.566163 64.953363 47.835747
LeftForeArm 29.292415 0.000000 122.486471
LeftHand -0.644447 -0.000000 -22.020118
LeftHandThumb1 -26.253704 0.000000 33.147579
RightShoulder -25.206717 23.809902 -44.889501
RightArm 113.932014 34.284583 90.390441
RightForeArm 22.330592 -0.000000 154.161587
RightHand 8.490614 -0.000000 4.509193
RightHandThumb1 -24.326973 -0.000000 -32.862282
LeftUpLeg 3.952199 15.678989 4.574696
LeftLeg -3.308433 -0.000000 0.000000
LeftFoot -8.588159 3.217077 -16.198449
LeftToeBase 11.311650 -0.000000 -0.000000
RightUpLeg 0.445354 -5.297555 -5.625303
RightLeg -0.784831 -0.000000 0.000000
RightFoot -5.683228 -1.573571 4.658644
RightToeBase 0.462929 -0.000000 -0.000000
2190
root 0.759714 32.905804 2.664108 6.394100 -6.997636 -0.440055
Spine -15.079390 -2.795232 -1.201682
Head 16.388961 -0.815297 16.639723
LeftShoulder 2.703926 31.408284 3.987369
LeftArm 140.483099 64.959931 47.758080
LeftForeArm 29.252898 -0.000000 122.492301
LeftHand -0.634544 -0.000000 -22.114056
LeftHandThumb1 -26.253704 0.000000 33.147579
RightShoulder -25.203493 23.786825 -44.834031
RightArm 113.920744 34.261786 90.385231
RightForeArm 22.331118 -0.000000 154.158096
RightHand 8.496151 0.000000 4.505224
RightHandThumb1 -24.326973 -0.000000 -32.862282
LeftUpLeg 3.972506 15.652178 4.576883
LeftLeg -3.305269 -0.000000 0.000000
LeftFoot -8.585405 3.212425 -16.227521
LeftToeBase 11.251031 -0.000000 -0.000000
RightUpLeg 0.469752 -5.302845 -5.631347
RightLeg -0.780779 -0.000000 0.000000
RightFoot -5.677592 -1.586336 4.637275
RightToeBase 0.393742 -0.000000 -0.000000
